<?xml version="1.0" encoding="UTF-8" standalone="no"?>
<!DOCTYPE svg PUBLIC "-//W3C//DTD SVG 1.1//EN"
 "http://www.w3.org/Graphics/SVG/1.1/DTD/svg11.dtd">
<!-- Generated by graphviz version 9.0.0 (20230911.1827)
 -->
<!-- Pages: 1 -->
<svg width="1907pt" height="1052pt"
 viewBox="0.00 0.00 1907.00 1052.00" xmlns="http://www.w3.org/2000/svg" xmlns:xlink="http://www.w3.org/1999/xlink">
<g id="graph0" class="graph" transform="scale(1 1) rotate(0) translate(4 1048)">
<polygon fill="white" stroke="none" points="-4,4 -4,-1048 1903,-1048 1903,4 -4,4"/>
<!-- button -->
<g id="node1" class="node">
<title>button</title>
<ellipse fill="none" stroke="black" cx="968" cy="-1026" rx="35.72" ry="18"/>
<text text-anchor="middle" x="968" y="-1021.8" font-family="Times,serif" font-size="14.00">button</text>
</g>
<!-- broadcaster -->
<g id="node2" class="node">
<title>broadcaster</title>
<ellipse fill="none" stroke="black" cx="968" cy="-954" rx="55.54" ry="18"/>
<text text-anchor="middle" x="968" y="-949.8" font-family="Times,serif" font-size="14.00">broadcaster</text>
</g>
<!-- button&#45;&gt;broadcaster -->
<g id="edge1" class="edge">
<title>button&#45;&gt;broadcaster</title>
<path fill="none" stroke="black" d="M968,-1007.7C968,-1000.41 968,-991.73 968,-983.54"/>
<polygon fill="black" stroke="black" points="971.5,-983.62 968,-973.62 964.5,-983.62 971.5,-983.62"/>
</g>
<!-- rz -->
<g id="node5" class="node">
<title>rz</title>
<ellipse fill="none" stroke="black" cx="224" cy="-882" rx="27" ry="18"/>
<text text-anchor="middle" x="224" y="-877.8" font-family="Times,serif" font-size="14.00">rz</text>
</g>
<!-- broadcaster&#45;&gt;rz -->
<g id="edge5" class="edge">
<title>broadcaster&#45;&gt;rz</title>
<path fill="none" stroke="black" d="M915.09,-948.02C772.92,-934.65 385.11,-898.16 262.02,-886.58"/>
<polygon fill="black" stroke="black" points="262.42,-883.1 252.13,-885.65 261.76,-890.07 262.42,-883.1"/>
</g>
<!-- fp -->
<g id="node7" class="node">
<title>fp</title>
<ellipse fill="none" stroke="black" cx="744" cy="-882" rx="27" ry="18"/>
<text text-anchor="middle" x="744" y="-877.8" font-family="Times,serif" font-size="14.00">fp</text>
</g>
<!-- broadcaster&#45;&gt;fp -->
<g id="edge6" class="edge">
<title>broadcaster&#45;&gt;fp</title>
<path fill="none" stroke="black" d="M928.98,-940.81C886.68,-927.59 819.78,-906.68 779.08,-893.96"/>
<polygon fill="black" stroke="black" points="780.12,-890.62 769.54,-890.98 778.04,-897.3 780.12,-890.62"/>
</g>
<!-- kv -->
<g id="node8" class="node">
<title>kv</title>
<ellipse fill="none" stroke="black" cx="1160" cy="-882" rx="27" ry="18"/>
<text text-anchor="middle" x="1160" y="-877.8" font-family="Times,serif" font-size="14.00">kv</text>
</g>
<!-- broadcaster&#45;&gt;kv -->
<g id="edge7" class="edge">
<title>broadcaster&#45;&gt;kv</title>
<path fill="none" stroke="black" d="M1003.66,-940C1038.7,-927.23 1091.76,-907.88 1126.15,-895.34"/>
<polygon fill="black" stroke="black" points="1127,-898.76 1135.19,-892.04 1124.6,-892.18 1127,-898.76"/>
</g>
<!-- fd -->
<g id="node9" class="node">
<title>fd</title>
<ellipse fill="none" stroke="black" cx="1639" cy="-882" rx="27" ry="18"/>
<text text-anchor="middle" x="1639" y="-877.8" font-family="Times,serif" font-size="14.00">fd</text>
</g>
<!-- broadcaster&#45;&gt;fd -->
<g id="edge8" class="edge">
<title>broadcaster&#45;&gt;fd</title>
<path fill="none" stroke="black" d="M1020.37,-947.54C1150.7,-933.94 1487.26,-898.83 1600.88,-886.98"/>
<polygon fill="black" stroke="black" points="1601,-890.48 1610.58,-885.96 1600.27,-883.52 1601,-890.48"/>
</g>
<!-- ls -->
<g id="node3" class="node">
<title>ls</title>
<ellipse fill="none" stroke="black" cx="81" cy="-18" rx="27" ry="18"/>
<text text-anchor="middle" x="81" y="-13.8" font-family="Times,serif" font-size="14.00">ls</text>
</g>
<!-- gl -->
<g id="node4" class="node">
<title>gl</title>
<ellipse fill="none" stroke="black" cx="224" cy="-738" rx="27" ry="18"/>
<text text-anchor="middle" x="224" y="-733.8" font-family="Times,serif" font-size="14.00">gl</text>
</g>
<!-- ls&#45;&gt;gl -->
<g id="edge2" class="edge">
<title>ls&#45;&gt;gl</title>
<path fill="none" stroke="black" d="M66.14,-33.2C42.76,-57.17 0,-108.21 0,-161 0,-595 0,-595 0,-595 0,-638.74 8.73,-655.6 42,-684 82.8,-718.83 145.44,-730.8 185.56,-734.89"/>
<polygon fill="black" stroke="black" points="185.21,-738.37 195.48,-735.77 185.83,-731.4 185.21,-738.37"/>
</g>
<!-- gl&#45;&gt;rz -->
<g id="edge79" class="edge">
<title>gl&#45;&gt;rz</title>
<path fill="none" stroke="black" d="M228.59,-756.19C231.11,-780.1 231.43,-823.72 229.53,-852.53"/>
<polygon fill="black" stroke="black" points="226.05,-852.11 228.71,-862.36 233.03,-852.69 226.05,-852.11"/>
</g>
<!-- mz -->
<g id="node20" class="node">
<title>mz</title>
<ellipse fill="none" stroke="black" cx="207" cy="-522" rx="27" ry="18"/>
<text text-anchor="middle" x="207" y="-517.8" font-family="Times,serif" font-size="14.00">mz</text>
</g>
<!-- gl&#45;&gt;mz -->
<g id="edge78" class="edge">
<title>gl&#45;&gt;mz</title>
<path fill="none" stroke="black" d="M222.64,-719.85C219.72,-683.14 212.85,-596.66 209.27,-551.53"/>
<polygon fill="black" stroke="black" points="212.77,-551.43 208.49,-541.74 205.79,-551.99 212.77,-551.43"/>
</g>
<!-- sp -->
<g id="node26" class="node">
<title>sp</title>
<ellipse fill="none" stroke="black" cx="226" cy="-378" rx="27" ry="18"/>
<text text-anchor="middle" x="226" y="-373.8" font-family="Times,serif" font-size="14.00">sp</text>
</g>
<!-- gl&#45;&gt;sp -->
<g id="edge77" class="edge">
<title>gl&#45;&gt;sp</title>
<path fill="none" stroke="black" d="M238.3,-722.23C260.31,-697.85 300,-646.73 300,-595 300,-595 300,-595 300,-521 300,-475 269.08,-429.13 247.21,-402.45"/>
<polygon fill="black" stroke="black" points="250.03,-400.36 240.9,-395 244.69,-404.89 250.03,-400.36"/>
</g>
<!-- mj -->
<g id="node27" class="node">
<title>mj</title>
<ellipse fill="none" stroke="black" cx="159" cy="-306" rx="27" ry="18"/>
<text text-anchor="middle" x="159" y="-301.8" font-family="Times,serif" font-size="14.00">mj</text>
</g>
<!-- gl&#45;&gt;mj -->
<g id="edge80" class="edge">
<title>gl&#45;&gt;mj</title>
<path fill="none" stroke="black" d="M197.46,-733.49C167.91,-728.14 120.91,-715.04 95,-684 69.08,-652.95 76,-635.45 76,-595 76,-595 76,-595 76,-449 76,-401.28 111.37,-355.35 135.93,-329.21"/>
<polygon fill="black" stroke="black" points="138.27,-331.83 142.72,-322.22 133.24,-326.95 138.27,-331.83"/>
</g>
<!-- xn -->
<g id="node49" class="node">
<title>xn</title>
<ellipse fill="none" stroke="black" cx="131" cy="-666" rx="27" ry="18"/>
<text text-anchor="middle" x="131" y="-661.8" font-family="Times,serif" font-size="14.00">xn</text>
</g>
<!-- gl&#45;&gt;xn -->
<g id="edge76" class="edge">
<title>gl&#45;&gt;xn</title>
<path fill="none" stroke="black" d="M206.51,-723.83C192.61,-713.37 172.95,-698.58 157.18,-686.7"/>
<polygon fill="black" stroke="black" points="159.72,-684.24 149.62,-681.02 155.51,-689.83 159.72,-684.24"/>
</g>
<!-- dd -->
<g id="node51" class="node">
<title>dd</title>
<ellipse fill="none" stroke="black" cx="226" cy="-450" rx="27" ry="18"/>
<text text-anchor="middle" x="226" y="-445.8" font-family="Times,serif" font-size="14.00">dd</text>
</g>
<!-- gl&#45;&gt;dd -->
<g id="edge81" class="edge">
<title>gl&#45;&gt;dd</title>
<path fill="none" stroke="black" d="M228.13,-719.94C236.89,-681.3 255.55,-584.2 243,-504 241.68,-495.56 239.25,-486.64 236.62,-478.56"/>
<polygon fill="black" stroke="black" points="239.99,-477.58 233.39,-469.29 233.38,-479.88 239.99,-477.58"/>
</g>
<!-- fh -->
<g id="node56" class="node">
<title>fh</title>
<ellipse fill="none" stroke="black" cx="431" cy="-666" rx="27" ry="18"/>
<text text-anchor="middle" x="431" y="-661.8" font-family="Times,serif" font-size="14.00">fh</text>
</g>
<!-- gl&#45;&gt;fh -->
<g id="edge75" class="edge">
<title>gl&#45;&gt;fh</title>
<path fill="none" stroke="black" d="M248.41,-729.91C280.97,-720.29 340.29,-702.21 390,-684 392.66,-683.03 395.4,-681.98 398.14,-680.91"/>
<polygon fill="black" stroke="black" points="399.21,-684.25 407.17,-677.26 396.59,-677.76 399.21,-684.25"/>
</g>
<!-- rz&#45;&gt;gl -->
<g id="edge4" class="edge">
<title>rz&#45;&gt;gl</title>
<path fill="none" stroke="black" d="M219.42,-863.87C216.89,-839.99 216.57,-796.38 218.46,-767.54"/>
<polygon fill="black" stroke="black" points="221.94,-767.95 219.28,-757.7 214.97,-767.37 221.94,-767.95"/>
</g>
<!-- vm -->
<g id="node6" class="node">
<title>vm</title>
<ellipse fill="none" stroke="black" cx="160" cy="-810" rx="27" ry="18"/>
<text text-anchor="middle" x="160" y="-805.8" font-family="Times,serif" font-size="14.00">vm</text>
</g>
<!-- rz&#45;&gt;vm -->
<g id="edge3" class="edge">
<title>rz&#45;&gt;vm</title>
<path fill="none" stroke="black" d="M210.43,-866.15C201.94,-856.87 190.83,-844.73 181.2,-834.19"/>
<polygon fill="black" stroke="black" points="183.91,-831.96 174.57,-826.94 178.74,-836.68 183.91,-831.96"/>
</g>
<!-- vm&#45;&gt;gl -->
<g id="edge48" class="edge">
<title>vm&#45;&gt;gl</title>
<path fill="none" stroke="black" d="M173.57,-794.15C182.06,-784.87 193.17,-772.73 202.8,-762.19"/>
<polygon fill="black" stroke="black" points="205.26,-764.68 209.43,-754.94 200.09,-759.96 205.26,-764.68"/>
</g>
<!-- vm&#45;&gt;xn -->
<g id="edge49" class="edge">
<title>vm&#45;&gt;xn</title>
<path fill="none" stroke="black" d="M156.5,-791.87C151.6,-767.88 142.64,-723.99 136.75,-695.16"/>
<polygon fill="black" stroke="black" points="140.24,-694.77 134.81,-685.67 133.39,-696.17 140.24,-694.77"/>
</g>
<!-- cc -->
<g id="node15" class="node">
<title>cc</title>
<ellipse fill="none" stroke="black" cx="680" cy="-810" rx="27" ry="18"/>
<text text-anchor="middle" x="680" y="-805.8" font-family="Times,serif" font-size="14.00">cc</text>
</g>
<!-- fp&#45;&gt;cc -->
<g id="edge12" class="edge">
<title>fp&#45;&gt;cc</title>
<path fill="none" stroke="black" d="M730.43,-866.15C721.94,-856.87 710.83,-844.73 701.2,-834.19"/>
<polygon fill="black" stroke="black" points="703.91,-831.96 694.57,-826.94 698.74,-836.68 703.91,-831.96"/>
</g>
<!-- gk -->
<g id="node16" class="node">
<title>gk</title>
<ellipse fill="none" stroke="black" cx="744" cy="-738" rx="27" ry="18"/>
<text text-anchor="middle" x="744" y="-733.8" font-family="Times,serif" font-size="14.00">gk</text>
</g>
<!-- fp&#45;&gt;gk -->
<g id="edge13" class="edge">
<title>fp&#45;&gt;gk</title>
<path fill="none" stroke="black" d="M739.42,-863.87C736.89,-839.99 736.57,-796.38 738.46,-767.54"/>
<polygon fill="black" stroke="black" points="741.94,-767.95 739.28,-757.7 734.97,-767.37 741.94,-767.95"/>
</g>
<!-- hr -->
<g id="node13" class="node">
<title>hr</title>
<ellipse fill="none" stroke="black" cx="1192" cy="-738" rx="27" ry="18"/>
<text text-anchor="middle" x="1192" y="-733.8" font-family="Times,serif" font-size="14.00">hr</text>
</g>
<!-- kv&#45;&gt;hr -->
<g id="edge45" class="edge">
<title>kv&#45;&gt;hr</title>
<path fill="none" stroke="black" d="M1159.31,-863.59C1162.26,-839.24 1172,-794.81 1180.45,-766.11"/>
<polygon fill="black" stroke="black" points="1183.76,-767.27 1183.4,-756.68 1177.07,-765.18 1183.76,-767.27"/>
</g>
<!-- xr -->
<g id="node46" class="node">
<title>xr</title>
<ellipse fill="none" stroke="black" cx="1128" cy="-810" rx="27" ry="18"/>
<text text-anchor="middle" x="1128" y="-805.8" font-family="Times,serif" font-size="14.00">xr</text>
</g>
<!-- kv&#45;&gt;xr -->
<g id="edge44" class="edge">
<title>kv&#45;&gt;xr</title>
<path fill="none" stroke="black" d="M1152.42,-864.41C1148.79,-856.48 1144.36,-846.78 1140.27,-837.84"/>
<polygon fill="black" stroke="black" points="1143.5,-836.49 1136.16,-828.85 1137.13,-839.4 1143.5,-836.49"/>
</g>
<!-- nr -->
<g id="node42" class="node">
<title>nr</title>
<ellipse fill="none" stroke="black" cx="1663" cy="-666" rx="27" ry="18"/>
<text text-anchor="middle" x="1663" y="-661.8" font-family="Times,serif" font-size="14.00">nr</text>
</g>
<!-- fd&#45;&gt;nr -->
<g id="edge84" class="edge">
<title>fd&#45;&gt;nr</title>
<path fill="none" stroke="black" d="M1637.05,-863.85C1637.66,-827.05 1647.11,-740.23 1655.09,-695.2"/>
<polygon fill="black" stroke="black" points="1658.52,-695.9 1656.96,-685.42 1651.65,-694.59 1658.52,-695.9"/>
</g>
<!-- df -->
<g id="node59" class="node">
<title>df</title>
<ellipse fill="none" stroke="black" cx="1703" cy="-810" rx="27" ry="18"/>
<text text-anchor="middle" x="1703" y="-805.8" font-family="Times,serif" font-size="14.00">df</text>
</g>
<!-- fd&#45;&gt;df -->
<g id="edge85" class="edge">
<title>fd&#45;&gt;df</title>
<path fill="none" stroke="black" d="M1652.57,-866.15C1661.06,-856.87 1672.17,-844.73 1681.8,-834.19"/>
<polygon fill="black" stroke="black" points="1684.26,-836.68 1688.43,-826.94 1679.09,-831.96 1684.26,-836.68"/>
</g>
<!-- ql -->
<g id="node10" class="node">
<title>ql</title>
<ellipse fill="none" stroke="black" cx="689" cy="-522" rx="27" ry="18"/>
<text text-anchor="middle" x="689" y="-517.8" font-family="Times,serif" font-size="14.00">ql</text>
</g>
<!-- bn -->
<g id="node11" class="node">
<title>bn</title>
<ellipse fill="none" stroke="black" cx="727" cy="-450" rx="27" ry="18"/>
<text text-anchor="middle" x="727" y="-445.8" font-family="Times,serif" font-size="14.00">bn</text>
</g>
<!-- ql&#45;&gt;bn -->
<g id="edge9" class="edge">
<title>ql&#45;&gt;bn</title>
<path fill="none" stroke="black" d="M697.81,-504.76C702.27,-496.55 707.8,-486.37 712.84,-477.09"/>
<polygon fill="black" stroke="black" points="715.82,-478.94 717.51,-468.48 709.67,-475.6 715.82,-478.94"/>
</g>
<!-- bn&#45;&gt;gk -->
<g id="edge30" class="edge">
<title>bn&#45;&gt;gk</title>
<path fill="none" stroke="black" d="M728.02,-468.23C730.85,-515.74 738.77,-648.97 742.28,-708.1"/>
<polygon fill="black" stroke="black" points="738.79,-708.25 742.87,-718.03 745.77,-707.84 738.79,-708.25"/>
</g>
<!-- rj -->
<g id="node32" class="node">
<title>rj</title>
<ellipse fill="none" stroke="black" cx="765" cy="-378" rx="27" ry="18"/>
<text text-anchor="middle" x="765" y="-373.8" font-family="Times,serif" font-size="14.00">rj</text>
</g>
<!-- bn&#45;&gt;rj -->
<g id="edge29" class="edge">
<title>bn&#45;&gt;rj</title>
<path fill="none" stroke="black" d="M735.81,-432.76C740.27,-424.55 745.8,-414.37 750.84,-405.09"/>
<polygon fill="black" stroke="black" points="753.82,-406.94 755.51,-396.48 747.67,-403.6 753.82,-406.94"/>
</g>
<!-- bm -->
<g id="node12" class="node">
<title>bm</title>
<ellipse fill="none" stroke="black" cx="1211" cy="-234" rx="27" ry="18"/>
<text text-anchor="middle" x="1211" y="-229.8" font-family="Times,serif" font-size="14.00">bm</text>
</g>
<!-- bm&#45;&gt;hr -->
<g id="edge10" class="edge">
<title>bm&#45;&gt;hr</title>
<path fill="none" stroke="black" d="M1187.3,-243.01C1142.09,-259.96 1048,-304 1048,-377 1048,-523 1048,-523 1048,-523 1048,-563.45 1048.6,-575.98 1067,-612 1071.9,-621.6 1124.34,-676.42 1132,-684 1143.04,-694.92 1155.87,-706.4 1166.83,-715.88"/>
<polygon fill="black" stroke="black" points="1164.48,-718.48 1174.36,-722.32 1169.04,-713.16 1164.48,-718.48"/>
</g>
<!-- fj -->
<g id="node14" class="node">
<title>fj</title>
<ellipse fill="none" stroke="black" cx="1211" cy="-162" rx="27" ry="18"/>
<text text-anchor="middle" x="1211" y="-157.8" font-family="Times,serif" font-size="14.00">fj</text>
</g>
<!-- bm&#45;&gt;fj -->
<g id="edge11" class="edge">
<title>bm&#45;&gt;fj</title>
<path fill="none" stroke="black" d="M1211,-215.7C1211,-208.41 1211,-199.73 1211,-191.54"/>
<polygon fill="black" stroke="black" points="1214.5,-191.62 1211,-181.62 1207.5,-191.62 1214.5,-191.62"/>
</g>
<!-- hr&#45;&gt;kv -->
<g id="edge41" class="edge">
<title>hr&#45;&gt;kv</title>
<path fill="none" stroke="black" d="M1192.7,-756.35C1189.77,-780.57 1180.09,-824.8 1171.65,-853.53"/>
<polygon fill="black" stroke="black" points="1168.34,-852.4 1168.71,-862.99 1175.02,-854.48 1168.34,-852.4"/>
</g>
<!-- hh -->
<g id="node43" class="node">
<title>hh</title>
<ellipse fill="none" stroke="black" cx="1103" cy="-594" rx="27" ry="18"/>
<text text-anchor="middle" x="1103" y="-589.8" font-family="Times,serif" font-size="14.00">hh</text>
</g>
<!-- hr&#45;&gt;hh -->
<g id="edge40" class="edge">
<title>hr&#45;&gt;hh</title>
<path fill="none" stroke="black" d="M1181.96,-720.99C1166.67,-696.59 1137.4,-649.88 1119.11,-620.7"/>
<polygon fill="black" stroke="black" points="1122.22,-619.07 1113.94,-612.45 1116.29,-622.79 1122.22,-619.07"/>
</g>
<!-- xl -->
<g id="node44" class="node">
<title>xl</title>
<ellipse fill="none" stroke="black" cx="1314" cy="-378" rx="27" ry="18"/>
<text text-anchor="middle" x="1314" y="-373.8" font-family="Times,serif" font-size="14.00">xl</text>
</g>
<!-- hr&#45;&gt;xl -->
<g id="edge42" class="edge">
<title>hr&#45;&gt;xl</title>
<path fill="none" stroke="black" d="M1217.08,-730.6C1267.85,-715.98 1378,-675.03 1378,-595 1378,-595 1378,-595 1378,-521 1378,-476.45 1351.49,-430.42 1332.59,-403.27"/>
<polygon fill="black" stroke="black" points="1335.6,-401.47 1326.92,-395.39 1329.92,-405.56 1335.6,-401.47"/>
</g>
<!-- qq -->
<g id="node45" class="node">
<title>qq</title>
<ellipse fill="none" stroke="black" cx="1061" cy="-666" rx="27" ry="18"/>
<text text-anchor="middle" x="1061" y="-661.8" font-family="Times,serif" font-size="14.00">qq</text>
</g>
<!-- hr&#45;&gt;qq -->
<g id="edge43" class="edge">
<title>hr&#45;&gt;qq</title>
<path fill="none" stroke="black" d="M1171.24,-725.91C1149.78,-714.44 1116.04,-696.41 1091.53,-683.32"/>
<polygon fill="black" stroke="black" points="1093.46,-680.38 1083,-678.75 1090.17,-686.55 1093.46,-680.38"/>
</g>
<!-- fj&#45;&gt;hr -->
<g id="edge93" class="edge">
<title>fj&#45;&gt;hr</title>
<path fill="none" stroke="black" d="M1185.45,-168.08C1130.5,-180.64 1006,-218.63 1006,-305 1006,-595 1006,-595 1006,-595 1006,-635.45 997.82,-654.05 1025,-684 1057.88,-720.24 1115.38,-731.86 1153.57,-735.49"/>
<polygon fill="black" stroke="black" points="1153,-738.96 1163.25,-736.26 1153.56,-731.98 1153,-738.96"/>
</g>
<!-- pt -->
<g id="node25" class="node">
<title>pt</title>
<ellipse fill="none" stroke="black" cx="1437" cy="-90" rx="27" ry="18"/>
<text text-anchor="middle" x="1437" y="-85.8" font-family="Times,serif" font-size="14.00">pt</text>
</g>
<!-- fj&#45;&gt;pt -->
<g id="edge92" class="edge">
<title>fj&#45;&gt;pt</title>
<path fill="none" stroke="black" d="M1235.19,-153.51C1275.27,-141.09 1355.62,-116.21 1401.93,-101.86"/>
<polygon fill="black" stroke="black" points="1402.68,-105.29 1411.2,-98.99 1400.61,-98.61 1402.68,-105.29"/>
</g>
<!-- cc&#45;&gt;gk -->
<g id="edge99" class="edge">
<title>cc&#45;&gt;gk</title>
<path fill="none" stroke="black" d="M693.57,-794.15C702.06,-784.87 713.17,-772.73 722.8,-762.19"/>
<polygon fill="black" stroke="black" points="725.26,-764.68 729.43,-754.94 720.09,-759.96 725.26,-764.68"/>
</g>
<!-- tp -->
<g id="node52" class="node">
<title>tp</title>
<ellipse fill="none" stroke="black" cx="503" cy="-666" rx="27" ry="18"/>
<text text-anchor="middle" x="503" y="-661.8" font-family="Times,serif" font-size="14.00">tp</text>
</g>
<!-- cc&#45;&gt;tp -->
<g id="edge100" class="edge">
<title>cc&#45;&gt;tp</title>
<path fill="none" stroke="black" d="M663.35,-795.64C632.25,-770.69 565.17,-716.88 528.39,-687.37"/>
<polygon fill="black" stroke="black" points="530.91,-684.9 520.92,-681.37 526.53,-690.36 530.91,-684.9"/>
</g>
<!-- gk&#45;&gt;fp -->
<g id="edge88" class="edge">
<title>gk&#45;&gt;fp</title>
<path fill="none" stroke="black" d="M748.59,-756.19C751.11,-780.1 751.43,-823.72 749.53,-852.53"/>
<polygon fill="black" stroke="black" points="746.05,-852.11 748.71,-862.36 753.03,-852.69 746.05,-852.11"/>
</g>
<!-- gk&#45;&gt;ql -->
<g id="edge89" class="edge">
<title>gk&#45;&gt;ql</title>
<path fill="none" stroke="black" d="M739.42,-719.82C736.67,-709.46 733.11,-695.98 730,-684 717.87,-637.25 704.07,-582.78 695.97,-550.69"/>
<polygon fill="black" stroke="black" points="699.47,-550.24 693.63,-541.4 692.68,-551.95 699.47,-550.24"/>
</g>
<!-- lk -->
<g id="node17" class="node">
<title>lk</title>
<ellipse fill="none" stroke="black" cx="951" cy="-666" rx="27" ry="18"/>
<text text-anchor="middle" x="951" y="-661.8" font-family="Times,serif" font-size="14.00">lk</text>
</g>
<!-- gk&#45;&gt;lk -->
<g id="edge86" class="edge">
<title>gk&#45;&gt;lk</title>
<path fill="none" stroke="black" d="M768.41,-729.91C800.97,-720.29 860.29,-702.21 910,-684 912.66,-683.03 915.4,-681.98 918.14,-680.91"/>
<polygon fill="black" stroke="black" points="919.21,-684.25 927.17,-677.26 916.59,-677.76 919.21,-684.25"/>
</g>
<!-- gk&#45;&gt;rj -->
<g id="edge91" class="edge">
<title>gk&#45;&gt;rj</title>
<path fill="none" stroke="black" d="M751.51,-720.34C762.58,-694.2 782,-641.7 782,-595 782,-595 782,-595 782,-521 782,-481.24 775.35,-435.67 770.37,-407.1"/>
<polygon fill="black" stroke="black" points="773.85,-406.68 768.63,-397.46 766.96,-407.92 773.85,-406.68"/>
</g>
<!-- hq -->
<g id="node47" class="node">
<title>hq</title>
<ellipse fill="none" stroke="black" cx="651" cy="-594" rx="27" ry="18"/>
<text text-anchor="middle" x="651" y="-589.8" font-family="Times,serif" font-size="14.00">hq</text>
</g>
<!-- gk&#45;&gt;hq -->
<g id="edge90" class="edge">
<title>gk&#45;&gt;hq</title>
<path fill="none" stroke="black" d="M727.96,-723.37C716.84,-713.31 702.25,-698.86 692,-684 678.8,-664.86 668.01,-640.8 660.82,-622.52"/>
<polygon fill="black" stroke="black" points="664.18,-621.5 657.35,-613.4 657.63,-623.99 664.18,-621.5"/>
</g>
<!-- gk&#45;&gt;tp -->
<g id="edge87" class="edge">
<title>gk&#45;&gt;tp</title>
<path fill="none" stroke="black" d="M718.42,-731.38C680.07,-722.7 605.59,-704.83 544,-684 541.25,-683.07 538.43,-682.05 535.61,-680.98"/>
<polygon fill="black" stroke="black" points="536.91,-677.73 526.33,-677.29 534.33,-684.24 536.91,-677.73"/>
</g>
<!-- nc -->
<g id="node18" class="node">
<title>nc</title>
<ellipse fill="none" stroke="black" cx="1103" cy="-522" rx="27" ry="18"/>
<text text-anchor="middle" x="1103" y="-517.8" font-family="Times,serif" font-size="14.00">nc</text>
</g>
<!-- lk&#45;&gt;nc -->
<g id="edge14" class="edge">
<title>lk&#45;&gt;nc</title>
<path fill="none" stroke="black" d="M966.13,-650.87C992.76,-625.99 1048.17,-574.22 1079.71,-544.76"/>
<polygon fill="black" stroke="black" points="1081.91,-547.49 1086.83,-538.11 1077.13,-542.38 1081.91,-547.49"/>
</g>
<!-- rx -->
<g id="node58" class="node">
<title>rx</title>
<ellipse fill="none" stroke="black" cx="1103" cy="-450" rx="27" ry="18"/>
<text text-anchor="middle" x="1103" y="-445.8" font-family="Times,serif" font-size="14.00">rx</text>
</g>
<!-- nc&#45;&gt;rx -->
<g id="edge65" class="edge">
<title>nc&#45;&gt;rx</title>
<path fill="none" stroke="black" d="M1103,-503.7C1103,-496.41 1103,-487.73 1103,-479.54"/>
<polygon fill="black" stroke="black" points="1106.5,-479.62 1103,-469.62 1099.5,-479.62 1106.5,-479.62"/>
</g>
<!-- xg -->
<g id="node19" class="node">
<title>xg</title>
<ellipse fill="none" stroke="black" cx="169" cy="-594" rx="27" ry="18"/>
<text text-anchor="middle" x="169" y="-589.8" font-family="Times,serif" font-size="14.00">xg</text>
</g>
<!-- xg&#45;&gt;gl -->
<g id="edge15" class="edge">
<title>xg&#45;&gt;gl</title>
<path fill="none" stroke="black" d="M175.52,-611.82C184.86,-635.94 202.16,-680.6 213.37,-709.54"/>
<polygon fill="black" stroke="black" points="210.05,-710.68 216.93,-718.74 216.58,-708.15 210.05,-710.68"/>
</g>
<!-- xg&#45;&gt;mz -->
<g id="edge16" class="edge">
<title>xg&#45;&gt;mz</title>
<path fill="none" stroke="black" d="M177.81,-576.76C182.27,-568.55 187.8,-558.37 192.84,-549.09"/>
<polygon fill="black" stroke="black" points="195.82,-550.94 197.51,-540.48 189.67,-547.6 195.82,-550.94"/>
</g>
<!-- mz&#45;&gt;dd -->
<g id="edge52" class="edge">
<title>mz&#45;&gt;dd</title>
<path fill="none" stroke="black" d="M211.6,-504.05C213.65,-496.49 216.13,-487.37 218.44,-478.85"/>
<polygon fill="black" stroke="black" points="221.8,-479.82 221.05,-469.25 215.05,-477.98 221.8,-479.82"/>
</g>
<!-- dg -->
<g id="node21" class="node">
<title>dg</title>
<ellipse fill="none" stroke="black" cx="784" cy="-234" rx="27" ry="18"/>
<text text-anchor="middle" x="784" y="-229.8" font-family="Times,serif" font-size="14.00">dg</text>
</g>
<!-- dg&#45;&gt;gk -->
<g id="edge17" class="edge">
<title>dg&#45;&gt;gk</title>
<path fill="none" stroke="black" d="M759.04,-241.2C707.9,-255.56 596,-296.22 596,-377 596,-595 596,-595 596,-595 596,-658.19 667.12,-702.01 710.76,-722.95"/>
<polygon fill="black" stroke="black" points="709.28,-726.12 719.83,-727.14 712.22,-719.77 709.28,-726.12"/>
</g>
<!-- mp -->
<g id="node22" class="node">
<title>mp</title>
<ellipse fill="none" stroke="black" cx="803" cy="-162" rx="27" ry="18"/>
<text text-anchor="middle" x="803" y="-157.8" font-family="Times,serif" font-size="14.00">mp</text>
</g>
<!-- dg&#45;&gt;mp -->
<g id="edge18" class="edge">
<title>dg&#45;&gt;mp</title>
<path fill="none" stroke="black" d="M788.6,-216.05C790.65,-208.49 793.13,-199.37 795.44,-190.85"/>
<polygon fill="black" stroke="black" points="798.8,-191.82 798.05,-181.25 792.05,-189.98 798.8,-191.82"/>
</g>
<!-- mp&#45;&gt;gk -->
<g id="edge66" class="edge">
<title>mp&#45;&gt;gk</title>
<path fill="none" stroke="black" d="M813.6,-178.84C829.59,-204.28 858,-256.36 858,-305 858,-595 858,-595 858,-595 858,-649.38 806.53,-694.8 772.76,-718.74"/>
<polygon fill="black" stroke="black" points="770.86,-715.8 764.59,-724.33 774.82,-721.57 770.86,-715.8"/>
</g>
<!-- kj -->
<g id="node30" class="node">
<title>kj</title>
<ellipse fill="none" stroke="black" cx="803" cy="-90" rx="27" ry="18"/>
<text text-anchor="middle" x="803" y="-85.8" font-family="Times,serif" font-size="14.00">kj</text>
</g>
<!-- mp&#45;&gt;kj -->
<g id="edge67" class="edge">
<title>mp&#45;&gt;kj</title>
<path fill="none" stroke="black" d="M803,-143.7C803,-136.41 803,-127.73 803,-119.54"/>
<polygon fill="black" stroke="black" points="806.5,-119.62 803,-109.62 799.5,-119.62 806.5,-119.62"/>
</g>
<!-- zg -->
<g id="node23" class="node">
<title>zg</title>
<ellipse fill="none" stroke="black" cx="241" cy="-90" rx="27" ry="18"/>
<text text-anchor="middle" x="241" y="-85.8" font-family="Times,serif" font-size="14.00">zg</text>
</g>
<!-- zg&#45;&gt;ls -->
<g id="edge19" class="edge">
<title>zg&#45;&gt;ls</title>
<path fill="none" stroke="black" d="M218.75,-79.27C191.49,-67.34 145.05,-47.02 113.71,-33.31"/>
<polygon fill="black" stroke="black" points="115.27,-30.17 104.7,-29.37 112.46,-36.58 115.27,-30.17"/>
</g>
<!-- zg&#45;&gt;gl -->
<g id="edge20" class="edge">
<title>zg&#45;&gt;gl</title>
<path fill="none" stroke="black" d="M262.69,-101.25C300.85,-120.96 376,-168.03 376,-233 376,-595 376,-595 376,-595 376,-659.39 302.27,-702.97 257.51,-723.49"/>
<polygon fill="black" stroke="black" points="256.2,-720.24 248.47,-727.48 259.03,-726.64 256.2,-720.24"/>
</g>
<!-- lg -->
<g id="node24" class="node">
<title>lg</title>
<ellipse fill="none" stroke="black" cx="1465" cy="-18" rx="27" ry="18"/>
<text text-anchor="middle" x="1465" y="-13.8" font-family="Times,serif" font-size="14.00">lg</text>
</g>
<!-- lg&#45;&gt;hr -->
<g id="edge21" class="edge">
<title>lg&#45;&gt;hr</title>
<path fill="none" stroke="black" d="M1470.33,-35.85C1478.2,-62.25 1492,-115.08 1492,-161 1492,-595 1492,-595 1492,-595 1492,-709.4 1311.59,-731.76 1230.58,-736.04"/>
<polygon fill="black" stroke="black" points="1230.5,-732.54 1220.66,-736.49 1230.81,-739.53 1230.5,-732.54"/>
</g>
<!-- pt&#45;&gt;hr -->
<g id="edge23" class="edge">
<title>pt&#45;&gt;hr</title>
<path fill="none" stroke="black" d="M1440.36,-107.97C1445.31,-134.52 1454,-187.56 1454,-233 1454,-595 1454,-595 1454,-595 1454,-695.47 1303.24,-725.22 1230.45,-733.73"/>
<polygon fill="black" stroke="black" points="1230.12,-730.25 1220.56,-734.8 1230.87,-737.21 1230.12,-730.25"/>
</g>
<!-- pt&#45;&gt;lg -->
<g id="edge22" class="edge">
<title>pt&#45;&gt;lg</title>
<path fill="none" stroke="black" d="M1443.64,-72.41C1446.77,-64.57 1450.6,-54.99 1454.15,-46.13"/>
<polygon fill="black" stroke="black" points="1457.39,-47.46 1457.85,-36.88 1450.89,-44.86 1457.39,-47.46"/>
</g>
<!-- sp&#45;&gt;mj -->
<g id="edge24" class="edge">
<title>sp&#45;&gt;mj</title>
<path fill="none" stroke="black" d="M212.12,-362.5C203.04,-353.02 191.01,-340.44 180.68,-329.66"/>
<polygon fill="black" stroke="black" points="183.35,-327.38 173.91,-322.58 178.3,-332.22 183.35,-327.38"/>
</g>
<!-- ms -->
<g id="node28" class="node">
<title>ms</title>
<ellipse fill="none" stroke="black" cx="159" cy="-234" rx="27" ry="18"/>
<text text-anchor="middle" x="159" y="-229.8" font-family="Times,serif" font-size="14.00">ms</text>
</g>
<!-- mj&#45;&gt;ms -->
<g id="edge97" class="edge">
<title>mj&#45;&gt;ms</title>
<path fill="none" stroke="black" d="M159,-287.7C159,-280.41 159,-271.73 159,-263.54"/>
<polygon fill="black" stroke="black" points="162.5,-263.62 159,-253.62 155.5,-263.62 162.5,-263.62"/>
</g>
<!-- ms&#45;&gt;gl -->
<g id="edge25" class="edge">
<title>ms&#45;&gt;gl</title>
<path fill="none" stroke="black" d="M138.75,-246.34C104.3,-267.3 38,-315.62 38,-377 38,-595 38,-595 38,-595 38,-637.5 42.39,-654.51 73,-684 103.87,-713.75 152.39,-726.89 186.06,-732.64"/>
<polygon fill="black" stroke="black" points="185.39,-736.07 195.81,-734.14 186.46,-729.16 185.39,-736.07"/>
</g>
<!-- hx -->
<g id="node29" class="node">
<title>hx</title>
<ellipse fill="none" stroke="black" cx="241" cy="-162" rx="27" ry="18"/>
<text text-anchor="middle" x="241" y="-157.8" font-family="Times,serif" font-size="14.00">hx</text>
</g>
<!-- ms&#45;&gt;hx -->
<g id="edge26" class="edge">
<title>ms&#45;&gt;hx</title>
<path fill="none" stroke="black" d="M175.2,-219.17C186.88,-209.2 202.86,-195.56 216.15,-184.21"/>
<polygon fill="black" stroke="black" points="218.35,-186.94 223.68,-177.78 213.8,-181.61 218.35,-186.94"/>
</g>
<!-- hx&#45;&gt;gl -->
<g id="edge109" class="edge">
<title>hx&#45;&gt;gl</title>
<path fill="none" stroke="black" d="M258.34,-176.22C286.24,-199.14 338,-249.17 338,-305 338,-595 338,-595 338,-595 338,-649.38 286.53,-694.8 252.76,-718.74"/>
<polygon fill="black" stroke="black" points="250.86,-715.8 244.59,-724.33 254.82,-721.57 250.86,-715.8"/>
</g>
<!-- hx&#45;&gt;zg -->
<g id="edge110" class="edge">
<title>hx&#45;&gt;zg</title>
<path fill="none" stroke="black" d="M241,-143.7C241,-136.41 241,-127.73 241,-119.54"/>
<polygon fill="black" stroke="black" points="244.5,-119.62 241,-109.62 237.5,-119.62 244.5,-119.62"/>
</g>
<!-- kj&#45;&gt;gk -->
<g id="edge28" class="edge">
<title>kj&#45;&gt;gk</title>
<path fill="none" stroke="black" d="M776.31,-93.84C712.82,-102.24 558,-132.95 558,-233 558,-595 558,-595 558,-595 558,-640.81 575.24,-654.16 610,-684 637.99,-708.02 678.18,-721.95 707.24,-729.45"/>
<polygon fill="black" stroke="black" points="706.15,-732.79 716.7,-731.75 707.81,-725.99 706.15,-732.79"/>
</g>
<!-- fl -->
<g id="node31" class="node">
<title>fl</title>
<ellipse fill="none" stroke="black" cx="869" cy="-18" rx="27" ry="18"/>
<text text-anchor="middle" x="869" y="-13.8" font-family="Times,serif" font-size="14.00">fl</text>
</g>
<!-- kj&#45;&gt;fl -->
<g id="edge27" class="edge">
<title>kj&#45;&gt;fl</title>
<path fill="none" stroke="black" d="M817,-74.15C825.75,-64.87 837.2,-52.73 847.13,-42.19"/>
<polygon fill="black" stroke="black" points="849.67,-44.6 853.98,-34.93 844.58,-39.8 849.67,-44.6"/>
</g>
<!-- fl&#45;&gt;gk -->
<g id="edge32" class="edge">
<title>fl&#45;&gt;gk</title>
<path fill="none" stroke="black" d="M874.33,-35.85C882.2,-62.25 896,-115.08 896,-161 896,-595 896,-595 896,-595 896,-659.39 822.27,-702.97 777.51,-723.49"/>
<polygon fill="black" stroke="black" points="776.2,-720.24 768.47,-727.48 779.03,-726.64 776.2,-720.24"/>
</g>
<!-- jk -->
<g id="node37" class="node">
<title>jk</title>
<ellipse fill="none" stroke="black" cx="784" cy="-306" rx="27" ry="18"/>
<text text-anchor="middle" x="784" y="-301.8" font-family="Times,serif" font-size="14.00">jk</text>
</g>
<!-- rj&#45;&gt;jk -->
<g id="edge82" class="edge">
<title>rj&#45;&gt;jk</title>
<path fill="none" stroke="black" d="M769.6,-360.05C771.65,-352.49 774.13,-343.37 776.44,-334.85"/>
<polygon fill="black" stroke="black" points="779.8,-335.82 779.05,-325.25 773.05,-333.98 779.8,-335.82"/>
</g>
<!-- xc -->
<g id="node33" class="node">
<title>xc</title>
<ellipse fill="none" stroke="black" cx="1737" cy="-450" rx="27" ry="18"/>
<text text-anchor="middle" x="1737" y="-445.8" font-family="Times,serif" font-size="14.00">xc</text>
</g>
<!-- vq -->
<g id="node34" class="node">
<title>vq</title>
<ellipse fill="none" stroke="black" cx="1699" cy="-378" rx="27" ry="18"/>
<text text-anchor="middle" x="1699" y="-373.8" font-family="Times,serif" font-size="14.00">vq</text>
</g>
<!-- xc&#45;&gt;vq -->
<g id="edge31" class="edge">
<title>xc&#45;&gt;vq</title>
<path fill="none" stroke="black" d="M1728.19,-432.76C1723.73,-424.55 1718.2,-414.37 1713.16,-405.09"/>
<polygon fill="black" stroke="black" points="1716.33,-403.6 1708.49,-396.48 1710.18,-406.94 1716.33,-403.6"/>
</g>
<!-- gr -->
<g id="node54" class="node">
<title>gr</title>
<ellipse fill="none" stroke="black" cx="1661" cy="-306" rx="27" ry="18"/>
<text text-anchor="middle" x="1661" y="-301.8" font-family="Times,serif" font-size="14.00">gr</text>
</g>
<!-- vq&#45;&gt;gr -->
<g id="edge104" class="edge">
<title>vq&#45;&gt;gr</title>
<path fill="none" stroke="black" d="M1690.19,-360.76C1685.73,-352.55 1680.2,-342.37 1675.16,-333.09"/>
<polygon fill="black" stroke="black" points="1678.33,-331.6 1670.49,-324.48 1672.18,-334.94 1678.33,-331.6"/>
</g>
<!-- dh -->
<g id="node35" class="node">
<title>dh</title>
<ellipse fill="none" stroke="black" cx="1175" cy="-594" rx="27" ry="18"/>
<text text-anchor="middle" x="1175" y="-589.8" font-family="Times,serif" font-size="14.00">dh</text>
</g>
<!-- dh&#45;&gt;hr -->
<g id="edge33" class="edge">
<title>dh&#45;&gt;hr</title>
<path fill="none" stroke="black" d="M1177.05,-612.11C1179.9,-635.92 1185.1,-679.37 1188.55,-708.22"/>
<polygon fill="black" stroke="black" points="1185.07,-708.57 1189.74,-718.09 1192.02,-707.74 1185.07,-708.57"/>
</g>
<!-- nm -->
<g id="node36" class="node">
<title>nm</title>
<ellipse fill="none" stroke="black" cx="1213" cy="-522" rx="27" ry="18"/>
<text text-anchor="middle" x="1213" y="-517.8" font-family="Times,serif" font-size="14.00">nm</text>
</g>
<!-- dh&#45;&gt;nm -->
<g id="edge34" class="edge">
<title>dh&#45;&gt;nm</title>
<path fill="none" stroke="black" d="M1183.81,-576.76C1188.27,-568.55 1193.8,-558.37 1198.84,-549.09"/>
<polygon fill="black" stroke="black" points="1201.82,-550.94 1203.51,-540.48 1195.67,-547.6 1201.82,-550.94"/>
</g>
<!-- nm&#45;&gt;hr -->
<g id="edge102" class="edge">
<title>nm&#45;&gt;hr</title>
<path fill="none" stroke="black" d="M1213.27,-540.43C1213.39,-558.4 1213.15,-587.21 1211,-612 1208.11,-645.26 1201.95,-683.13 1197.42,-708.38"/>
<polygon fill="black" stroke="black" points="1193.98,-707.74 1195.62,-718.2 1200.87,-709 1193.98,-707.74"/>
</g>
<!-- rb -->
<g id="node57" class="node">
<title>rb</title>
<ellipse fill="none" stroke="black" cx="1268" cy="-450" rx="27" ry="18"/>
<text text-anchor="middle" x="1268" y="-445.8" font-family="Times,serif" font-size="14.00">rb</text>
</g>
<!-- nm&#45;&gt;rb -->
<g id="edge101" class="edge">
<title>nm&#45;&gt;rb</title>
<path fill="none" stroke="black" d="M1225.21,-505.46C1232.11,-496.67 1240.91,-485.48 1248.73,-475.53"/>
<polygon fill="black" stroke="black" points="1251.47,-477.71 1254.89,-467.68 1245.96,-473.38 1251.47,-477.71"/>
</g>
<!-- jk&#45;&gt;gk -->
<g id="edge35" class="edge">
<title>jk&#45;&gt;gk</title>
<path fill="none" stroke="black" d="M791.11,-323.7C801.6,-349.89 820,-402.46 820,-449 820,-595 820,-595 820,-595 820,-641.27 788.24,-687.06 765.78,-713.65"/>
<polygon fill="black" stroke="black" points="763.23,-711.25 759.29,-721.09 768.5,-715.86 763.23,-711.25"/>
</g>
<!-- jk&#45;&gt;dg -->
<g id="edge36" class="edge">
<title>jk&#45;&gt;dg</title>
<path fill="none" stroke="black" d="M784,-287.7C784,-280.41 784,-271.73 784,-263.54"/>
<polygon fill="black" stroke="black" points="787.5,-263.62 784,-253.62 780.5,-263.62 787.5,-263.62"/>
</g>
<!-- tf -->
<g id="node38" class="node">
<title>tf</title>
<ellipse fill="none" stroke="black" cx="1872" cy="-594" rx="27" ry="18"/>
<text text-anchor="middle" x="1872" y="-589.8" font-family="Times,serif" font-size="14.00">tf</text>
</g>
<!-- cb -->
<g id="node39" class="node">
<title>cb</title>
<ellipse fill="none" stroke="black" cx="1775" cy="-522" rx="27" ry="18"/>
<text text-anchor="middle" x="1775" y="-517.8" font-family="Times,serif" font-size="14.00">cb</text>
</g>
<!-- tf&#45;&gt;cb -->
<g id="edge37" class="edge">
<title>tf&#45;&gt;cb</title>
<path fill="none" stroke="black" d="M1854.21,-580.16C1839.58,-569.6 1818.61,-554.47 1801.93,-542.43"/>
<polygon fill="black" stroke="black" points="1804.06,-539.66 1793.91,-536.64 1799.97,-545.33 1804.06,-539.66"/>
</g>
<!-- cb&#45;&gt;xc -->
<g id="edge105" class="edge">
<title>cb&#45;&gt;xc</title>
<path fill="none" stroke="black" d="M1766.19,-504.76C1761.73,-496.55 1756.2,-486.37 1751.16,-477.09"/>
<polygon fill="black" stroke="black" points="1754.33,-475.6 1746.49,-468.48 1748.18,-478.94 1754.33,-475.6"/>
</g>
<!-- kd -->
<g id="node40" class="node">
<title>kd</title>
<ellipse fill="none" stroke="black" cx="1604" cy="-162" rx="27" ry="18"/>
<text text-anchor="middle" x="1604" y="-157.8" font-family="Times,serif" font-size="14.00">kd</text>
</g>
<!-- cm -->
<g id="node41" class="node">
<title>cm</title>
<ellipse fill="none" stroke="black" cx="1604" cy="-90" rx="27" ry="18"/>
<text text-anchor="middle" x="1604" y="-85.8" font-family="Times,serif" font-size="14.00">cm</text>
</g>
<!-- kd&#45;&gt;cm -->
<g id="edge38" class="edge">
<title>kd&#45;&gt;cm</title>
<path fill="none" stroke="black" d="M1604,-143.7C1604,-136.41 1604,-127.73 1604,-119.54"/>
<polygon fill="black" stroke="black" points="1607.5,-119.62 1604,-109.62 1600.5,-119.62 1607.5,-119.62"/>
</g>
<!-- kd&#45;&gt;nr -->
<g id="edge39" class="edge">
<title>kd&#45;&gt;nr</title>
<path fill="none" stroke="black" d="M1596.89,-179.7C1586.4,-205.89 1568,-258.46 1568,-305 1568,-523 1568,-523 1568,-523 1568,-573.05 1609.27,-618.81 1637.41,-644.2"/>
<polygon fill="black" stroke="black" points="1635.04,-646.77 1644.88,-650.71 1639.64,-641.5 1635.04,-646.77"/>
</g>
<!-- cm&#45;&gt;nr -->
<g id="edge60" class="edge">
<title>cm&#45;&gt;nr</title>
<path fill="none" stroke="black" d="M1590.08,-105.84C1568.65,-130.32 1530,-181.57 1530,-233 1530,-523 1530,-523 1530,-523 1530,-582.22 1592.39,-626.93 1631.7,-649.23"/>
<polygon fill="black" stroke="black" points="1629.85,-652.2 1640.3,-653.94 1633.21,-646.06 1629.85,-652.2"/>
</g>
<!-- cf -->
<g id="node53" class="node">
<title>cf</title>
<ellipse fill="none" stroke="black" cx="1726" cy="-18" rx="27" ry="18"/>
<text text-anchor="middle" x="1726" y="-13.8" font-family="Times,serif" font-size="14.00">cf</text>
</g>
<!-- cm&#45;&gt;cf -->
<g id="edge61" class="edge">
<title>cm&#45;&gt;cf</title>
<path fill="none" stroke="black" d="M1624.15,-77.44C1643.78,-66.18 1673.86,-48.92 1696.24,-36.07"/>
<polygon fill="black" stroke="black" points="1697.98,-39.11 1704.92,-31.1 1694.5,-33.04 1697.98,-39.11"/>
</g>
<!-- nr&#45;&gt;fd -->
<g id="edge68" class="edge">
<title>nr&#45;&gt;fd</title>
<path fill="none" stroke="black" d="M1664.95,-684.31C1664.31,-721.24 1654.86,-808.06 1646.88,-852.98"/>
<polygon fill="black" stroke="black" points="1643.45,-852.24 1645.01,-862.72 1650.33,-853.56 1643.45,-852.24"/>
</g>
<!-- nr&#45;&gt;xc -->
<g id="edge73" class="edge">
<title>nr&#45;&gt;xc</title>
<path fill="none" stroke="black" d="M1674.46,-649.46C1681.53,-639.26 1690.3,-625.36 1696,-612 1715.05,-567.34 1726.77,-511.8 1732.57,-479"/>
<polygon fill="black" stroke="black" points="1735.96,-479.94 1734.19,-469.5 1729.06,-478.77 1735.96,-479.94"/>
</g>
<!-- nr&#45;&gt;vq -->
<g id="edge74" class="edge">
<title>nr&#45;&gt;vq</title>
<path fill="none" stroke="black" d="M1665.14,-647.97C1671.12,-600.49 1688.01,-466.31 1695.43,-407.36"/>
<polygon fill="black" stroke="black" points="1698.86,-408.17 1696.63,-397.81 1691.91,-407.29 1698.86,-408.17"/>
</g>
<!-- nr&#45;&gt;tf -->
<g id="edge72" class="edge">
<title>nr&#45;&gt;tf</title>
<path fill="none" stroke="black" d="M1687.71,-657.94C1720.67,-648.36 1780.71,-630.32 1831,-612 1833.66,-611.03 1836.4,-609.99 1839.15,-608.92"/>
<polygon fill="black" stroke="black" points="1840.21,-612.26 1848.18,-605.28 1837.6,-605.77 1840.21,-612.26"/>
</g>
<!-- nr&#45;&gt;cb -->
<g id="edge71" class="edge">
<title>nr&#45;&gt;cb</title>
<path fill="none" stroke="black" d="M1683.23,-653.72C1698.76,-644.24 1719.87,-629.45 1734,-612 1748.72,-593.82 1759.45,-569.51 1766.24,-550.88"/>
<polygon fill="black" stroke="black" points="1769.5,-552.15 1769.46,-541.56 1762.88,-549.87 1769.5,-552.15"/>
</g>
<!-- fn -->
<g id="node48" class="node">
<title>fn</title>
<ellipse fill="none" stroke="black" cx="1323" cy="-594" rx="27" ry="18"/>
<text text-anchor="middle" x="1323" y="-589.8" font-family="Times,serif" font-size="14.00">fn</text>
</g>
<!-- nr&#45;&gt;fn -->
<g id="edge70" class="edge">
<title>nr&#45;&gt;fn</title>
<path fill="none" stroke="black" d="M1637.17,-659.68C1577.4,-647.38 1429.4,-616.91 1360.02,-602.62"/>
<polygon fill="black" stroke="black" points="1360.78,-599.2 1350.28,-600.62 1359.37,-606.06 1360.78,-599.2"/>
</g>
<!-- nr&#45;&gt;gr -->
<g id="edge69" class="edge">
<title>nr&#45;&gt;gr</title>
<path fill="none" stroke="black" d="M1659.25,-648.05C1653.71,-621.52 1644,-568.52 1644,-523 1644,-523 1644,-523 1644,-449 1644,-409.24 1650.65,-363.67 1655.63,-335.1"/>
<polygon fill="black" stroke="black" points="1659.04,-335.92 1657.37,-325.46 1652.15,-334.68 1659.04,-335.92"/>
</g>
<!-- hh&#45;&gt;nc -->
<g id="edge83" class="edge">
<title>hh&#45;&gt;nc</title>
<path fill="none" stroke="black" d="M1103,-575.7C1103,-568.41 1103,-559.73 1103,-551.54"/>
<polygon fill="black" stroke="black" points="1106.5,-551.62 1103,-541.62 1099.5,-551.62 1106.5,-551.62"/>
</g>
<!-- jd -->
<g id="node55" class="node">
<title>jd</title>
<ellipse fill="none" stroke="black" cx="1314" cy="-306" rx="27" ry="18"/>
<text text-anchor="middle" x="1314" y="-301.8" font-family="Times,serif" font-size="14.00">jd</text>
</g>
<!-- xl&#45;&gt;jd -->
<g id="edge108" class="edge">
<title>xl&#45;&gt;jd</title>
<path fill="none" stroke="black" d="M1314,-359.7C1314,-352.41 1314,-343.73 1314,-335.54"/>
<polygon fill="black" stroke="black" points="1317.5,-335.62 1314,-325.62 1310.5,-335.62 1317.5,-335.62"/>
</g>
<!-- qq&#45;&gt;dh -->
<g id="edge94" class="edge">
<title>qq&#45;&gt;dh</title>
<path fill="none" stroke="black" d="M1080.34,-653.13C1098.27,-642.11 1125.21,-625.57 1145.77,-612.95"/>
<polygon fill="black" stroke="black" points="1147.59,-615.94 1154.28,-607.72 1143.92,-609.97 1147.59,-615.94"/>
</g>
<!-- xr&#45;&gt;hr -->
<g id="edge59" class="edge">
<title>xr&#45;&gt;hr</title>
<path fill="none" stroke="black" d="M1141.57,-794.15C1150.06,-784.87 1161.17,-772.73 1170.8,-762.19"/>
<polygon fill="black" stroke="black" points="1173.26,-764.68 1177.43,-754.94 1168.09,-759.96 1173.26,-764.68"/>
</g>
<!-- xr&#45;&gt;qq -->
<g id="edge58" class="edge">
<title>xr&#45;&gt;qq</title>
<path fill="none" stroke="black" d="M1120.18,-792.43C1108.74,-768.17 1087.29,-722.71 1073.6,-693.7"/>
<polygon fill="black" stroke="black" points="1076.85,-692.38 1069.41,-684.83 1070.51,-695.37 1076.85,-692.38"/>
</g>
<!-- hq&#45;&gt;ql -->
<g id="edge46" class="edge">
<title>hq&#45;&gt;ql</title>
<path fill="none" stroke="black" d="M659.81,-576.76C664.27,-568.55 669.8,-558.37 674.84,-549.09"/>
<polygon fill="black" stroke="black" points="677.82,-550.94 679.51,-540.48 671.67,-547.6 677.82,-550.94"/>
</g>
<!-- fn&#45;&gt;nc -->
<g id="edge47" class="edge">
<title>fn&#45;&gt;nc</title>
<path fill="none" stroke="black" d="M1299.04,-585.38C1260.02,-572.96 1182.63,-548.34 1137.63,-534.02"/>
<polygon fill="black" stroke="black" points="1138.97,-530.77 1128.38,-531.07 1136.84,-537.44 1138.97,-530.77"/>
</g>
<!-- xn&#45;&gt;xg -->
<g id="edge98" class="edge">
<title>xn&#45;&gt;xg</title>
<path fill="none" stroke="black" d="M139.81,-648.76C144.27,-640.55 149.8,-630.37 154.84,-621.09"/>
<polygon fill="black" stroke="black" points="157.82,-622.94 159.51,-612.48 151.67,-619.6 157.82,-622.94"/>
</g>
<!-- jh -->
<g id="node50" class="node">
<title>jh</title>
<ellipse fill="none" stroke="black" cx="1623" cy="-234" rx="27" ry="18"/>
<text text-anchor="middle" x="1623" y="-229.8" font-family="Times,serif" font-size="14.00">jh</text>
</g>
<!-- jh&#45;&gt;kd -->
<g id="edge51" class="edge">
<title>jh&#45;&gt;kd</title>
<path fill="none" stroke="black" d="M1618.4,-216.05C1616.35,-208.49 1613.87,-199.37 1611.56,-190.85"/>
<polygon fill="black" stroke="black" points="1614.95,-189.98 1608.95,-181.25 1608.2,-191.82 1614.95,-189.98"/>
</g>
<!-- jh&#45;&gt;nr -->
<g id="edge50" class="edge">
<title>jh&#45;&gt;nr</title>
<path fill="none" stroke="black" d="M1619.64,-251.97C1614.69,-278.52 1606,-331.56 1606,-377 1606,-523 1606,-523 1606,-523 1606,-566.34 1629.15,-612.12 1645.95,-639.62"/>
<polygon fill="black" stroke="black" points="1642.9,-641.35 1651.2,-647.94 1648.82,-637.62 1642.9,-641.35"/>
</g>
<!-- dd&#45;&gt;sp -->
<g id="edge103" class="edge">
<title>dd&#45;&gt;sp</title>
<path fill="none" stroke="black" d="M226,-431.7C226,-424.41 226,-415.73 226,-407.54"/>
<polygon fill="black" stroke="black" points="229.5,-407.62 226,-397.62 222.5,-407.62 229.5,-407.62"/>
</g>
<!-- tp&#45;&gt;hq -->
<g id="edge53" class="edge">
<title>tp&#45;&gt;hq</title>
<path fill="none" stroke="black" d="M524.52,-654.82C549.4,-643.05 590.59,-623.57 619.18,-610.05"/>
<polygon fill="black" stroke="black" points="620.54,-613.28 628.09,-605.84 617.55,-606.95 620.54,-613.28"/>
</g>
<!-- cf&#45;&gt;nr -->
<g id="edge54" class="edge">
<title>cf&#45;&gt;nr</title>
<path fill="none" stroke="black" d="M1744.12,-31.57C1773.91,-53.9 1830,-103.55 1830,-161 1830,-451 1830,-451 1830,-451 1830,-529.38 1816.8,-560.16 1758,-612 1739.47,-628.33 1715.08,-641.81 1695.65,-651.09"/>
<polygon fill="black" stroke="black" points="1694.43,-647.8 1686.81,-655.17 1697.36,-654.15 1694.43,-647.8"/>
</g>
<!-- gr&#45;&gt;jh -->
<g id="edge55" class="edge">
<title>gr&#45;&gt;jh</title>
<path fill="none" stroke="black" d="M1652.19,-288.76C1647.73,-280.55 1642.2,-270.37 1637.16,-261.09"/>
<polygon fill="black" stroke="black" points="1640.33,-259.6 1632.49,-252.48 1634.18,-262.94 1640.33,-259.6"/>
</g>
<!-- jd&#45;&gt;bm -->
<g id="edge57" class="edge">
<title>jd&#45;&gt;bm</title>
<path fill="none" stroke="black" d="M1295.59,-292.49C1279.77,-281.73 1256.73,-266.08 1238.69,-253.82"/>
<polygon fill="black" stroke="black" points="1240.74,-250.98 1230.51,-248.26 1236.81,-256.77 1240.74,-250.98"/>
</g>
<!-- jd&#45;&gt;hr -->
<g id="edge56" class="edge">
<title>jd&#45;&gt;hr</title>
<path fill="none" stroke="black" d="M1331.77,-319.66C1360.99,-342.1 1416,-391.94 1416,-449 1416,-595 1416,-595 1416,-595 1416,-682.34 1293.01,-718.21 1229.3,-730.93"/>
<polygon fill="black" stroke="black" points="1228.8,-727.47 1219.62,-732.77 1230.1,-734.35 1228.8,-727.47"/>
</g>
<!-- fh&#45;&gt;nc -->
<g id="edge62" class="edge">
<title>fh&#45;&gt;nc</title>
<path fill="none" stroke="black" d="M450.26,-652.92C482.8,-633.14 551.39,-594.25 615,-576 777.2,-529.47 980.44,-523.21 1064.19,-522.76"/>
<polygon fill="black" stroke="black" points="1064.16,-526.26 1074.15,-522.74 1064.14,-519.26 1064.16,-526.26"/>
</g>
<!-- rb&#45;&gt;hr -->
<g id="edge64" class="edge">
<title>rb&#45;&gt;hr</title>
<path fill="none" stroke="black" d="M1265.76,-468.35C1260.39,-507.59 1245.13,-605.83 1218,-684 1214.92,-692.89 1210.7,-702.21 1206.56,-710.52"/>
<polygon fill="black" stroke="black" points="1203.46,-708.9 1201.97,-719.39 1209.67,-712.13 1203.46,-708.9"/>
</g>
<!-- rb&#45;&gt;xl -->
<g id="edge63" class="edge">
<title>rb&#45;&gt;xl</title>
<path fill="none" stroke="black" d="M1278.44,-433.12C1284.03,-424.61 1291.04,-413.94 1297.36,-404.32"/>
<polygon fill="black" stroke="black" points="1300.21,-406.37 1302.77,-396.09 1294.36,-402.52 1300.21,-406.37"/>
</g>
<!-- df&#45;&gt;nr -->
<g id="edge95" class="edge">
<title>df&#45;&gt;nr</title>
<path fill="none" stroke="black" d="M1698.18,-791.87C1691.42,-767.88 1679.05,-723.99 1670.93,-695.16"/>
<polygon fill="black" stroke="black" points="1674.33,-694.32 1668.25,-685.65 1667.59,-696.22 1674.33,-694.32"/>
</g>
<!-- nv -->
<g id="node60" class="node">
<title>nv</title>
<ellipse fill="none" stroke="black" cx="1741" cy="-738" rx="27" ry="18"/>
<text text-anchor="middle" x="1741" y="-733.8" font-family="Times,serif" font-size="14.00">nv</text>
</g>
<!-- df&#45;&gt;nv -->
<g id="edge96" class="edge">
<title>df&#45;&gt;nv</title>
<path fill="none" stroke="black" d="M1711.81,-792.76C1716.27,-784.55 1721.8,-774.37 1726.84,-765.09"/>
<polygon fill="black" stroke="black" points="1729.82,-766.94 1731.51,-756.48 1723.67,-763.6 1729.82,-766.94"/>
</g>
<!-- nv&#45;&gt;tf -->
<g id="edge106" class="edge">
<title>nv&#45;&gt;tf</title>
<path fill="none" stroke="black" d="M1754.77,-722.07C1777.63,-697.29 1823.57,-647.49 1850.66,-618.13"/>
<polygon fill="black" stroke="black" points="1853.18,-620.56 1857.39,-610.84 1848.03,-615.82 1853.18,-620.56"/>
</g>
<!-- nv&#45;&gt;nr -->
<g id="edge107" class="edge">
<title>nv&#45;&gt;nr</title>
<path fill="none" stroke="black" d="M1725.59,-723.17C1714.55,-713.26 1699.47,-699.73 1686.88,-688.43"/>
<polygon fill="black" stroke="black" points="1689.55,-686.13 1679.77,-682.05 1684.88,-691.34 1689.55,-686.13"/>
</g>
</g>
</svg>
