<?xml version="1.0" encoding="UTF-8" standalone="no"?>
<!DOCTYPE svg PUBLIC "-//W3C//DTD SVG 1.1//EN"
 "http://www.w3.org/Graphics/SVG/1.1/DTD/svg11.dtd">
<!-- Generated by graphviz version 9.0.0 (20230911.1827)
 -->
<!-- Pages: 1 -->
<svg width="258pt" height="666pt"
 viewBox="0.00 0.00 258.00 665.60" xmlns="http://www.w3.org/2000/svg" xmlns:xlink="http://www.w3.org/1999/xlink">
<g id="graph0" class="graph" transform="scale(1 1) rotate(0) translate(4 661.6)">
<polygon fill="white" stroke="none" points="-4,4 -4,-661.6 254,-661.6 254,4 -4,4"/>
<!-- 1,0 -->
<g id="node1" class="node">
<title>1,0</title>
<ellipse fill="none" stroke="black" cx="169" cy="-639.6" rx="27.66" ry="18"/>
<text text-anchor="middle" x="169" y="-635.4" font-family="Times,serif" font-size="14.00">start</text>
</g>
<!-- 3,5 -->
<g id="node3" class="node">
<title>3,5</title>
<ellipse fill="none" stroke="black" cx="169" cy="-550.8" rx="27" ry="18"/>
<text text-anchor="middle" x="169" y="-546.6" font-family="Times,serif" font-size="14.00">3,5</text>
</g>
<!-- 1,0&#45;&#45;3,5 -->
<g id="edge1" class="edge">
<title>1,0&#45;&#45;3,5</title>
<path fill="none" stroke="black" d="M169,-621.45C169,-606.33 169,-584.41 169,-569.21"/>
<text text-anchor="middle" x="176" y="-591" font-family="Times,serif" font-size="14.00">15</text>
</g>
<!-- 21,22 -->
<g id="node2" class="node">
<title>21,22</title>
<ellipse fill="none" stroke="black" cx="97" cy="-195.6" rx="27" ry="18"/>
<text text-anchor="middle" x="97" y="-191.4" font-family="Times,serif" font-size="14.00">end</text>
</g>
<!-- 5,13 -->
<g id="node4" class="node">
<title>5,13</title>
<ellipse fill="none" stroke="black" cx="75" cy="-462" rx="27.94" ry="18"/>
<text text-anchor="middle" x="75" y="-457.8" font-family="Times,serif" font-size="14.00">5,13</text>
</g>
<!-- 3,5&#45;&#45;5,13 -->
<g id="edge2" class="edge">
<title>3,5&#45;&#45;5,13</title>
<path fill="none" stroke="black" d="M153.9,-535.85C136.46,-519.75 107.93,-493.41 90.38,-477.2"/>
<text text-anchor="middle" x="137" y="-502.2" font-family="Times,serif" font-size="14.00">22</text>
</g>
<!-- 13,19 -->
<g id="node5" class="node">
<title>13,19</title>
<ellipse fill="none" stroke="black" cx="75" cy="-373.2" rx="32.76" ry="18"/>
<text text-anchor="middle" x="75" y="-369" font-family="Times,serif" font-size="14.00">13,19</text>
</g>
<!-- 5,13&#45;&#45;13,19 -->
<g id="edge3" class="edge">
<title>5,13&#45;&#45;13,19</title>
<path fill="none" stroke="black" d="M75,-443.85C75,-428.73 75,-406.81 75,-391.61"/>
<text text-anchor="middle" x="82" y="-413.4" font-family="Times,serif" font-size="14.00">38</text>
</g>
<!-- 19,19 -->
<g id="node6" class="node">
<title>19,19</title>
<ellipse fill="none" stroke="black" cx="103" cy="-284.4" rx="32.76" ry="18"/>
<text text-anchor="middle" x="103" y="-280.2" font-family="Times,serif" font-size="14.00">19,19</text>
</g>
<!-- 13,19&#45;&#45;19,19 -->
<g id="edge4" class="edge">
<title>13,19&#45;&#45;19,19</title>
<path fill="none" stroke="black" d="M80.53,-355.05C85.44,-339.83 92.57,-317.72 97.48,-302.51"/>
<text text-anchor="middle" x="98" y="-324.6" font-family="Times,serif" font-size="14.00">10</text>
</g>
<!-- 19,19&#45;&#45;21,22 -->
<g id="edge5" class="edge">
<title>19,19&#45;&#45;21,22</title>
<path fill="none" stroke="black" d="M101.81,-266.25C100.77,-251.13 99.25,-229.21 98.2,-214.01"/>
<text text-anchor="middle" x="103.5" y="-235.8" font-family="Times,serif" font-size="14.00">5</text>
</g>
<!-- 21,11 -->
<g id="node7" class="node">
<title>21,11</title>
<ellipse fill="none" stroke="black" cx="175" cy="-195.6" rx="32.76" ry="18"/>
<text text-anchor="middle" x="175" y="-191.4" font-family="Times,serif" font-size="14.00">21,11</text>
</g>
<!-- 19,19&#45;&#45;21,11 -->
<g id="edge6" class="edge">
<title>19,19&#45;&#45;21,11</title>
<path fill="none" stroke="black" d="M116.21,-267.48C129.2,-251.82 148.92,-228.05 161.88,-212.42"/>
<text text-anchor="middle" x="152" y="-235.8" font-family="Times,serif" font-size="14.00">10</text>
</g>
<!-- 13,13 -->
<g id="node8" class="node">
<title>13,13</title>
<ellipse fill="none" stroke="black" cx="74" cy="-106.8" rx="32.76" ry="18"/>
<text text-anchor="middle" x="74" y="-102.6" font-family="Times,serif" font-size="14.00">13,13</text>
</g>
<!-- 21,11&#45;&#45;13,13 -->
<g id="edge7" class="edge">
<title>21,11&#45;&#45;13,13</title>
<path fill="none" stroke="black" d="M157.87,-179.88C139.29,-163.91 109.82,-138.59 91.22,-122.6"/>
<text text-anchor="middle" x="140" y="-147" font-family="Times,serif" font-size="14.00">18</text>
</g>
<!-- 13,13&#45;&#45;5,13 -->
<g id="edge8" class="edge">
<title>13,13&#45;&#45;5,13</title>
<path fill="none" stroke="black" d="M52.6,-120.52C30.74,-135.31 0,-161.93 0,-194.6 0,-374.2 0,-374.2 0,-374.2 0,-407.86 32.69,-434.9 54.9,-449.4"/>
<text text-anchor="middle" x="7" y="-280.2" font-family="Times,serif" font-size="14.00">12</text>
</g>
<!-- 13,13&#45;&#45;13,19 -->
<g id="edge9" class="edge">
<title>13,13&#45;&#45;13,19</title>
<path fill="none" stroke="black" d="M69.91,-124.89C66.76,-138.94 62.68,-159.43 61,-177.6 55.9,-232.83 55.52,-247.2 61,-302.4 62.81,-320.6 67.2,-341.09 70.59,-355.13"/>
<text text-anchor="middle" x="64" y="-235.8" font-family="Times,serif" font-size="14.00">10</text>
</g>
<!-- 11,3 -->
<g id="node9" class="node">
<title>11,3</title>
<ellipse fill="none" stroke="black" cx="175" cy="-18" rx="27.94" ry="18"/>
<text text-anchor="middle" x="175" y="-13.8" font-family="Times,serif" font-size="14.00">11,3</text>
</g>
<!-- 13,13&#45;&#45;11,3 -->
<g id="edge10" class="edge">
<title>13,13&#45;&#45;11,3</title>
<path fill="none" stroke="black" d="M91.13,-91.08C110.04,-74.82 140.25,-48.86 158.79,-32.93"/>
<text text-anchor="middle" x="140" y="-58.2" font-family="Times,serif" font-size="14.00">24</text>
</g>
<!-- 11,3&#45;&#45;3,5 -->
<g id="edge11" class="edge">
<title>11,3&#45;&#45;3,5</title>
<path fill="none" stroke="black" d="M192.32,-32.3C210.35,-47.81 236,-75.23 236,-105.8 236,-463 236,-463 236,-463 236,-494.98 207.15,-522.37 187.31,-537.42"/>
<text text-anchor="middle" x="243" y="-280.2" font-family="Times,serif" font-size="14.00">22</text>
</g>
<!-- 11,3&#45;&#45;21,11 -->
<g id="edge12" class="edge">
<title>11,3&#45;&#45;21,11</title>
<path fill="none" stroke="black" d="M175,-36.41C175,-70.01 175,-143.46 175,-177.12"/>
<text text-anchor="middle" x="182" y="-102.6" font-family="Times,serif" font-size="14.00">30</text>
</g>
</g>
</svg>
